:SAMPLES-PER-SECOND 30
:FULLY-SPECIFIED
:DEGREES
307
root  34.68034699 36.49797815 -14.91293419 8.469114304 -7.302825451 3.70644021
lowerback  -7.595479965 -1.696370125 -1.121950388
upperback  -4.220910072 -1.762019992 -2.827980042
thorax  -0.1563249975 -0.7199950218 -2.413199902
lowerneck  -7.15045023 -12.07619953 -10.83170033
upperneck  16.76720047 -16.60250092 10.84939957
head  8.197432518 -7.553209305 3.597239971
lclavicle  0 -4.497500157e-015 -2.743230041e-014
lhumerus  -49.05989838 28.15089989 64.49130249
lradius  -2.057401616e-006 -6.507048965e-006 31.2310009
lwrist  4.824992743e-007 -3.790274832e-007 -26.33399963
lhand  -4.411539904e-031 -36.82889938 -10.68379974
lfingers  90 7.125020027 -90
lthumb  94.78458383 -25.52196928 100.9937526
rclavicle  0 -4.497500157e-015 -2.743230041e-014
rhumerus  -62.6917038 -35.60639954 -40.81199646
rradius  -5.16745672e-007 2.214343908e-008 53.53320313
rwrist  -0.0001011603963 0.007538665552 -165.1399994
rhand  -1.771410377e-031 4.656889915 -5.684249878
rfingers  -90 -7.125020027 -90
rthumb  -84.06209884 -10.14144615 -59.42994643
rfemur  -13.02523518 16.74335861 12.8221674
rtibia  -1.378315449 -1.500174046 21.47574425
rfoot  0.1683433652 -23.05098915 -34.98054886
rtoes  3.893521665 19.63259187 -101.4512199
lfemur  -8.247663498 -16.29267883 -20.42379379
ltibia  2.366412401 -1.537334085 15.20182228
lfoot  1.02405405 -22.56089973 38.26364517
ltoes  -8.582365106 -18.13346325 -115.8694627
308
root  34.67765568 36.49870805 -14.91311591 8.460868835 -7.247552872 3.704768658
lowerback  -7.666930676 -1.67343998 -1.166970134
upperback  -4.19272995 -1.727110028 -2.811059952
thorax  -0.08456610143 -0.7020519972 -2.370130062
lowerneck  -7.174200058 -12.12619972 -10.8380003
upperneck  16.72470093 -16.6706028 10.85879898
head  8.19659996 -7.586259842 3.590209961
lclavicle  0 -4.497500157e-015 -2.743230041e-014
lhumerus  -48.95890045 28.12369919 64.60829926
lradius  -2.057401616e-006 -6.507048965e-006 31.2140007
lwrist  4.824992743e-007 -3.790274832e-007 -26.34020042
lhand  -0 -36.90200043 -10.65149975
lfingers  90 7.125020027 -90
lthumb  94.81200627 -25.48770008 101.06903
rclavicle  0 -4.497500157e-015 -2.743230041e-014
rhumerus  -62.49520111 -36.16360092 -40.59550095
rradius  -5.16745672e-007 2.214343908e-008 51.6493988
rwrist  -0.0001011603963 0.007538665552 -164.2940063
rhand  -1.771934622e-031 4.860549927 -5.444180012
rfingers  -90 -7.125020027 -90
rthumb  -83.8843206 -10.35799415 -59.20826702
rfemur  -12.98678493 16.73941612 12.82440662
rtibia  -1.381952524 -1.502218485 21.43825531
rfoot  0.1697458625 -23.02985001 -35.02301407
rtoes  3.889037205 19.63344695 -101.4378731
lfemur  -8.241763115 -16.23121262 -20.42286873
ltibia  2.372554541 -1.499904513 15.20767403
lfoot  1.042999506 -22.65285683 38.22846222
ltoes  -8.602598352 -18.1241254 -115.9344892
309
root  34.67600965 36.49942293 -14.91370314 8.466060638 -7.211081982 3.704792261
lowerback  -7.698800564 -1.649760008 -1.186580062
upperback  -4.177539825 -1.692299962 -2.827559948
thorax  -0.05006489903 -0.6842290163 -2.374629974
lowerneck  -7.18655014 -12.17099953 -10.81239986
upperneck  16.68790054 -16.73729897 10.87679958
head  8.193719864 -7.615260124 3.582380056
lclavicle  0 -4.497500157e-015 -2.743230041e-014
lhumerus  -48.86959839 28.02210045 64.7036972
lradius  -2.057401616e-006 -6.507048965e-006 31.19939995
lwrist  4.824992743e-007 -3.790274832e-007 -26.32839966
lhand  -0 -36.8586998 -10.63469982
lfingers  90 7.125020027 -90
lthumb  94.78815203 -25.4727479 101.0211389
rclavicle  0 -4.497500157e-015 -2.743230041e-014
rhumerus  -62.47890091 -36.86909866 -40.21099472
rradius  -5.16745672e-007 2.214343908e-008 49.8586998
rwrist  -0.0001011603963 0.007538665552 -162.8309937
rhand  -1.772276595e-031 4.988870144 -5.482379913
rfingers  -90 -7.125020027 -90
rthumb  -83.87027267 -10.33144923 -59.08592358
rfemur  -12.9827528 16.73309135 12.84710598
rtibia  -1.392909884 -1.502629519 21.4358654
rfoot  0.1644962132 -23.03581619 -35.05265427
rtoes  3.901706928 19.63102849 -101.4755827
lfemur  -8.243224144 -16.29473495 -20.4175663
ltibia  2.385652065 -1.519216895 15.20864773
lfoot  1.041595936 -22.60160446 38.22169876
ltoes  -8.594053447 -18.12807231 -115.9070233
310
root  34.67388604 36.50024594 -14.91478747 8.484870911 -7.156700611 3.704793453
lowerback  -7.71310997 -1.639420033 -1.206420183
upperback  -4.163179874 -1.676900029 -2.829570055
thorax  -0.02625639923 -0.6764190197 -2.364969969
lowerneck  -7.204100132 -12.19540024 -10.78320026
upperneck  16.65800095 -16.77079773 10.86499977
head  8.187040329 -7.630980015 3.568650007
lclavicle  0 -4.497500157e-015 -2.743230041e-014
lhumerus  -48.80089951 27.91430092 64.81569672
lradius  -2.057401616e-006 -6.507048965e-006 31.19149971
lwrist  4.824992743e-007 -3.790274832e-007 -26.23130035
lhand  -0 -36.82910156 -10.70300007
lfingers  90 7.125020027 -90
lthumb  94.78875392 -25.54089956 100.9957214
rclavicle  0 -4.497500157e-015 -2.743230041e-014
rhumerus  -62.69680023 -37.74089813 -39.62009811
rradius  -5.16745672e-007 2.214343908e-008 48.12779999
rwrist  -0.0001011603963 0.007538665552 -161.5090027
rhand  -0 5.069950104 -5.718249798
rfingers  -90 -7.125020027 -90
rthumb  -83.97218158 -10.13320163 -59.0283827
rfemur  -13.00029564 16.72206497 12.85802555
rtibia  -1.400813818 -1.489858747 21.44754982
rfoot  0.1509234756 -23.00529671 -35.09752655
rtoes  3.920850657 19.62735866 -101.5325697
lfemur  -8.298261642 -16.38004494 -20.39353371
ltibia  2.362737656 -1.548701644 15.25259686
lfoot  1.012596726 -22.54590607 38.16963959
ltoes  -8.579061718 -18.13498519 -115.8588492
